<?xml version="1.0" encoding="UTF-8" standalone="no"?>
<svg xmlns="http://www.w3.org/2000/svg" width="1200" height="800" viewBox="0 0 1200 800">
    <!-- 标题和注释 -->
    <text x="1000" y="30" font-size="12">NOTES</text>
    <text x="1000" y="60" font-size="12">PCB: JT80</text>
    <text x="1000" y="80" font-size="12">V1,2: ECC83, filament</text>
    <text x="1000" y="100" font-size="12">supply shown on power</text>
    <text x="1000" y="120" font-size="12">stage diagram.</text>

    <!-- 主电源线 X -->
    <line x1="50" y1="50" x2="1150" y2="50" stroke="black" stroke-width="1"/>
    <text x="30" y="55" font-size="12">X</text>

    <!-- 输入部分 -->
    <g transform="translate(100,100)">
        <!-- HIGH/LOW 输入插孔 -->
        <g>
            <!-- HIGH J1 -->
            <circle cx="20" cy="0" r="2" fill="none" stroke="black"/>
            <text x="0" y="-5" font-size="10">HIGH</text>
            <text x="0" y="15" font-size="10">J1</text>

            <!-- LOW J2 -->
            <circle cx="20" cy="40" r="2" fill="none" stroke="black"/>
            <text x="0" y="35" font-size="10">LOW</text>
            <text x="0" y="55" font-size="10">J2</text>
        </g>

        <!-- R3 68K -->
        <g transform="translate(30,0)">
            <path d="M0,0 L30,0" stroke="black"/>
            <path d="M30,0 L35,-5 L45,5 L55,-5 L65,5 L70,0" stroke="black" fill="none"/>
            <text x="35" y="-10" font-size="10">R3 68K</text>
        </g>

        <!-- C3 .022μ -->
        <g transform="translate(100,0)">
            <line x1="0" y1="0" x2="20" y2="0" stroke="black"/>
            <line x1="15" y1="-5" x2="15" y2="5" stroke="black"/>
            <line x1="20" y1="-5" x2="20" y2="5" stroke="black"/>
            <text x="5" y="-10" font-size="10">C3 .022μ</text>
        </g>
    </g>

    <!-- V1A 部分 -->
    <g transform="translate(250,100)">
        <circle cx="0" cy="0" r="20" fill="none" stroke="black"/>
        <text x="-10" y="5" font-size="12">V1A</text>

        <!-- R4 100K -->
        <line x1="0" y1="-20" x2="0" y2="-50" stroke="black"/>
        <text x="5" y="-35" font-size="10">R4 100K</text>

        <!-- R5 2.7K -->
        <line x1="0" y1="20" x2="0" y2="50" stroke="black"/>
        <text x="5" y="40" font-size="10">R5 2.7K</text>

        <!-- 输出到 V1B -->
        <line x1="20" y1="0" x2="40" y2="0" stroke="black"/>
        <line x1="35" y1="-5" x2="35" y2="5" stroke="black"/>
        <line x1="40" y1="-5" x2="40" y2="5" stroke="black"/>
        <text x="25" y="-10" font-size="10">.022μ</text>
    </g>

    <!-- V1B 部分 -->
    <g transform="translate(400,100)">
        <circle cx="0" cy="0" r="20" fill="none" stroke="black"/>
        <text x="-10" y="5" font-size="12">V1B</text>

        <!-- Preamp Vol -->
        <circle cx="50" cy="0" r="10" fill="none" stroke="black"/>
        <text x="35" y="25" font-size="10">Preamp Vol</text>
    </g>

    <!-- V2A 部分 -->
    <g transform="translate(550,100)">
        <circle cx="0" cy="0" r="20" fill="none" stroke="black"/>
        <text x="-10" y="5" font-size="12">V2A</text>
    </g>

    <!-- 音调控制 -->
    <g transform="translate(700,100)">
        <!-- Bass -->
        <circle cx="0" cy="0" r="10" fill="none" stroke="black"/>
        <text x="-10" y="25" font-size="10">Bass</text>

        <!-- Middle -->
        <circle cx="100" cy="0" r="10" fill="none" stroke="black"/>
        <text x="90" y="25" font-size="10">Middle</text>

        <!-- Treble -->
        <circle cx="200" cy="0" r="10" fill="none" stroke="black"/>
        <text x="190" y="25" font-size="10">Treble</text>

        <!-- Master Vol -->
        <circle cx="300" cy="0" r="10" fill="none" stroke="black"/>
        <text x="280" y="25" font-size="10">Master Vol</text>
    </g>

    <!-- Y轴线 -->
    <line x1="50" y1="300" x2="1150" y2="300" stroke="black" stroke-width="1"/>
    <text x="30" y="305" font-size="12">Y</text>

    <!-- 功率级部分 -->
    <g transform="translate(100,400)">
        <!-- V3 ECC83 -->
        <circle cx="0" cy="0" r="20" fill="none" stroke="black"/>
        <text x="-10" y="5" font-size="12">V3</text>
        <text x="-15" y="20" font-size="10">ECC83</text>

        <!-- V4 EL34 -->
        <g transform="translate(150,0)">
            <circle cx="0" cy="0" r="20" fill="none" stroke="black"/>
            <text x="-10" y="5" font-size="12">V4</text>
            <text x="-15" y="20" font-size="10">EL34</text>
        </g>

        <!-- V5 EL34 -->
        <g transform="translate(300,0)">
            <circle cx="0" cy="0" r="20" fill="none" stroke="black"/>
            <text x="-10" y="5" font-size="12">V5</text>
            <text x="-15" y="20" font-size="10">EL34</text>
        </g>

        <!-- 输出变压器 -->
        <g transform="translate(450,0)">
            <rect x="0" y="-30" width="40" height="60" fill="none" stroke="black"/>
            <text x="5" y="0" font-size="10">OUTPUT</text>
            <text x="5" y="15" font-size="10">TX</text>

            <!-- 输出阻抗 -->
            <line x1="40" y1="-20" x2="70" y2="-20" stroke="black"/>
            <text x="75" y="-15" font-size="10">4Ω</text>
            <line x1="40" y1="0" x2="70" y2="0" stroke="black"/>
            <text x="75" y="5" font-size="10">8Ω</text>
            <line x1="40" y1="20" x2="70" y2="20" stroke="black"/>
            <text x="75" y="25" font-size="10">16Ω</text>
        </g>

        <!-- 电源变压器 -->
        <g transform="translate(600,0)">
            <rect x="0" y="-30" width="40" height="60" fill="none" stroke="black"/>
            <text x="5" y="0" font-size="10">MAINS</text>
            <text x="5" y="15" font-size="10">TX</text>
        </g>

        <!-- 整流器 -->
        <g transform="translate(700,0)">
            <path d="M0,0 L20,0" stroke="black"/>
            <path d="M15,-5 L25,0 L15,5 Z" fill="none" stroke="black"/>
            <text x="0" y="-10" font-size="10">1N4007</text>
        </g>

        <!-- 滤波电容 -->
        <g transform="translate(800,0)">
            <line x1="0" y1="-15" x2="0" y2="15" stroke="black"/>
            <line x1="-5" y1="0" x2="5" y2="0" stroke="black"/>
            <text x="10" y="5" font-size="10">47μF</text>
        </g>
    </g>

    <!-- Z轴线 -->
    <line x1="50" y1="600" x2="1150" y2="600" stroke="black" stroke-width="1"/>
    <text x="30" y="605" font-size="12">Z</text>

</svg>
